<?xml version="1.0" encoding="UTF-8"?>
<svg xmlns="http://www.w3.org/2000/svg" xmlns:xlink="http://www.w3.org/1999/xlink" width="12pt" height="12pt" viewBox="0 0 12 12" version="1.1">
<g id="surface1">
<path style=" stroke:none;fill-rule:nonzero;fill:rgb(0%,0%,0%);fill-opacity:1;" d="M 8.078125 6.648438 C 7.628906 6.648438 7.199219 6.839844 6.902344 7.179688 L 6.167969 6.660156 C 6.246094 6.445312 6.292969 6.214844 6.292969 5.972656 C 6.292969 5.742188 6.25 5.511719 6.171875 5.296875 L 6.90625 4.78125 C 7.203125 5.117188 7.628906 5.3125 8.078125 5.3125 C 8.941406 5.308594 9.640625 4.609375 9.640625 3.746094 C 9.640625 2.882812 8.941406 2.183594 8.078125 2.183594 C 7.214844 2.183594 6.515625 2.882812 6.511719 3.746094 C 6.511719 3.902344 6.535156 4.046875 6.578125 4.191406 L 5.84375 4.707031 C 5.539062 4.324219 5.097656 4.058594 4.59375 3.980469 L 4.59375 3.09375 C 5.316406 2.941406 5.835938 2.300781 5.835938 1.5625 C 5.832031 0.699219 5.132812 0 4.269531 0 C 3.40625 0 2.707031 0.699219 2.707031 1.566406 C 2.707031 2.308594 3.226562 2.929688 3.921875 3.089844 L 3.921875 3.988281 C 2.972656 4.148438 2.25 4.976562 2.25 5.972656 C 2.25 6.972656 2.980469 7.800781 3.933594 7.960938 L 3.933594 8.910156 C 3.234375 9.058594 2.707031 9.6875 2.707031 10.433594 C 2.707031 11.296875 3.40625 12 4.269531 12 C 5.132812 12 5.832031 11.300781 5.835938 10.433594 C 5.835938 9.6875 5.308594 9.0625 4.605469 8.910156 L 4.605469 7.960938 C 5.101562 7.878906 5.53125 7.617188 5.835938 7.246094 L 6.578125 7.769531 C 6.535156 7.914062 6.511719 8.0625 6.511719 8.210938 C 6.515625 9.074219 7.214844 9.773438 8.078125 9.777344 C 8.941406 9.773438 9.640625 9.074219 9.640625 8.210938 C 9.640625 7.347656 8.941406 6.648438 8.078125 6.648438 Z M 8.078125 2.988281 C 8.496094 2.988281 8.835938 3.328125 8.835938 3.746094 C 8.835938 4.164062 8.496094 4.503906 8.078125 4.503906 C 7.660156 4.503906 7.320312 4.164062 7.320312 3.746094 C 7.320312 3.328125 7.660156 2.988281 8.078125 2.988281 Z M 3.511719 1.566406 C 3.511719 1.144531 3.851562 0.804688 4.269531 0.804688 C 4.6875 0.804688 5.027344 1.144531 5.027344 1.566406 C 5.027344 1.984375 4.6875 2.324219 4.269531 2.324219 C 3.851562 2.324219 3.511719 1.984375 3.511719 1.566406 Z M 5.027344 10.4375 C 5.027344 10.855469 4.6875 11.195312 4.269531 11.195312 C 3.851562 11.195312 3.511719 10.855469 3.511719 10.4375 C 3.511719 10.019531 3.851562 9.679688 4.269531 9.679688 C 4.6875 9.679688 5.027344 10.019531 5.027344 10.4375 Z M 4.269531 7.03125 C 3.6875 7.03125 3.210938 6.554688 3.210938 5.972656 C 3.210938 5.390625 3.6875 4.914062 4.269531 4.914062 C 4.851562 4.914062 5.328125 5.390625 5.328125 5.972656 C 5.328125 6.554688 4.851562 7.03125 4.269531 7.03125 Z M 8.078125 8.96875 C 7.660156 8.96875 7.316406 8.628906 7.316406 8.210938 C 7.316406 7.792969 7.660156 7.453125 8.078125 7.453125 C 8.496094 7.453125 8.835938 7.792969 8.835938 8.210938 C 8.835938 8.628906 8.496094 8.96875 8.078125 8.96875 Z M 8.078125 8.96875 "/>
</g>
</svg>
